<svg width="69" height="70" viewBox="0 0 69 70" fill="none" xmlns="http://www.w3.org/2000/svg">
<path d="M39.7544 20.5202C42.2972 22.1145 44.0802 24.8123 44.4048 27.9439C45.4418 28.4284 46.5928 28.7071 47.813 28.7071C52.2678 28.7071 55.8785 25.0964 55.8785 20.6423C55.8785 16.1875 52.2678 12.5769 47.813 12.5769C43.4008 12.5783 39.8217 16.1244 39.7544 20.5202ZM34.4706 37.034C38.9254 37.034 42.536 33.4227 42.536 28.9686C42.536 24.5145 38.9247 20.9038 34.4706 20.9038C30.0165 20.9038 26.4038 24.5151 26.4038 28.9693C26.4038 33.4234 30.0165 37.034 34.4706 37.034ZM37.8918 37.5837H31.048C25.3537 37.5837 20.7212 42.217 20.7212 47.9112V56.2807L20.7425 56.4118L21.319 56.5923C26.7531 58.2902 31.4742 58.8564 35.36 58.8564C42.9499 58.8564 47.3491 56.6925 47.6202 56.5545L48.1589 56.2821H48.2166V47.9112C48.2186 42.217 43.5861 37.5837 37.8918 37.5837ZM51.2356 29.2575H44.4446C44.3712 31.9746 43.2114 34.4212 41.3769 36.1809C46.4384 37.686 50.1416 42.3796 50.1416 47.9236V50.5027C56.8468 50.257 60.7107 48.3566 60.9653 48.229L61.5041 47.9558H61.5617V39.5836C61.5617 33.8901 56.9292 29.2575 51.2356 29.2575ZM20.3183 28.7085C21.8961 28.7085 23.3642 28.248 24.6077 27.4635C25.003 24.8851 26.3853 22.6319 28.3598 21.0974C28.368 20.9464 28.3824 20.7968 28.3824 20.6444C28.3824 16.1896 24.7711 12.579 20.3183 12.579C15.8629 12.579 12.2529 16.1896 12.2529 20.6444C12.2529 25.0971 15.8629 28.7085 20.3183 28.7085ZM27.5616 36.1809C25.736 34.4302 24.5803 31.9965 24.4959 29.2959C24.244 29.2774 23.9949 29.2575 23.7382 29.2575H16.8951C11.2008 29.2575 6.56825 33.8901 6.56825 39.5836V47.9545L6.58953 48.0835L7.16602 48.2654C11.5254 49.6263 15.4161 50.2536 18.7954 50.4512V47.9236C18.7968 42.3796 22.4987 37.6874 27.5616 36.1809Z" fill="#642190"/>
</svg>
