<svg width="51" height="51" viewBox="0 0 51 51" fill="none" xmlns="http://www.w3.org/2000/svg">
<path d="M46.7303 35.5383C49.7375 38.5447 49.7375 43.4192 46.7303 46.4235C43.7243 49.4299 38.8506 49.4299 35.8431 46.4235L38.3639 43.9027L44.2092 38.0577L46.7303 35.5383ZM41.2288 35.0801L35.3865 40.9248L32.8646 43.4435L26.8612 37.4421L26.7783 37.5239L13.4285 24.1741L13.5107 24.0932L9.15608 19.7355L1.45244 1.14982L20.0411 8.85145L24.3969 13.206L24.4264 13.1762L37.7751 26.5259L37.7456 26.5546L43.7482 32.5603L41.2288 35.0801ZM12.5868 18.1241C13.0854 17.9162 13.603 17.6356 13.9782 17.2592C14.9696 16.2682 14.6993 14.3958 14.2863 13.9817C14.6993 14.3946 16.5732 14.6646 17.5638 13.6759C17.9395 13.3007 18.2228 12.7785 18.4295 12.281C18.7698 11.4676 18.9053 10.7072 18.9053 10.7072L8.22532 6.28193L6.58676 7.9205L11.0121 18.5995C11.0121 18.5995 11.7724 18.4627 12.5869 18.1236L12.5868 18.1241ZM50.5407 11.7729L39.1787 0.412888C38.6313 -0.137629 37.7401 -0.137629 37.1911 0.412888L26.2677 11.3353L39.6165 24.6871L42.0546 22.2481L37.9107 18.1049C37.4018 17.596 37.4018 16.7743 37.9107 16.2635C38.4199 15.757 39.2427 15.757 39.752 16.2635L43.8953 20.4074L46.3335 17.9704L42.1902 13.8264C41.6825 13.3176 41.6825 12.4931 42.1902 11.9839C42.6995 11.4763 43.5235 11.4763 44.0327 11.9839L48.1747 16.1268L50.5407 13.764C51.0885 13.2127 51.0885 12.3227 50.5403 11.7738L50.5407 11.7729ZM0.663463 36.9373C0.114132 37.4867 0.114132 38.3778 0.663463 38.9264L12.0255 50.2864C12.5748 50.8361 13.4649 50.8361 14.0142 50.2864L16.379 47.9229L12.235 43.7808C11.7262 43.272 11.7262 42.4463 12.235 41.9383C12.7439 41.4295 13.5671 41.4295 14.0771 41.9383L18.2191 46.0839L20.6581 43.6425L16.5142 39.5005C16.0065 38.9924 16.0065 38.1684 16.5142 37.658C17.023 37.1491 17.8474 37.1491 18.3562 37.658L22.5002 41.8036L24.9364 39.365L11.5887 26.0122L0.663463 36.9373Z" fill="black"/>
</svg>
