<svg width="69" height="70" viewBox="0 0 69 70" fill="none" xmlns="http://www.w3.org/2000/svg">
<path d="M20.7009 42.0552C22.1879 43.3149 23.174 45.0215 23.5302 46.8844H32.1819V34.7673C29.2519 34.0104 27.0812 31.3447 27.0812 28.1814H30.4817C30.4817 30.0565 32.0071 31.582 33.8822 31.582C35.7572 31.582 37.2827 30.0565 37.2827 28.1814H40.6832C40.6832 31.3446 38.5124 34.0104 35.5824 34.7673V46.8843H44.2361C44.5962 45.0218 45.5916 43.3067 47.0927 42.0303C51.6637 38.1435 54.2853 32.4761 54.2853 26.4812C54.2853 8.19185 31.9801 -0.790156 19.2777 12.2594C10.9876 20.7764 11.6963 34.4274 20.7009 42.0552Z" fill="#642190"/>
<path d="M33.8822 64.1135C37.6323 64.1135 40.6832 61.0626 40.6832 57.3125H27.0812C27.0812 61.0626 30.1321 64.1135 33.8822 64.1135Z" fill="#642190"/>
<path d="M23.6806 50.2849H44.0837V53.9121H23.6806V50.2849Z" fill="#642190"/>
</svg>
