<svg width="70" height="70" viewBox="0 0 70 70" fill="none" xmlns="http://www.w3.org/2000/svg">
<path fill-rule="evenodd" clip-rule="evenodd" d="M49.4048 46.5543L60.6601 35.2991C62.3646 33.5944 62.3646 30.8204 60.66 29.1157C60.0588 28.5144 59.3246 28.1265 58.5514 27.9494C58.8166 27.3793 58.9569 26.7536 58.9569 26.1065C58.9569 24.9383 58.5021 23.8404 57.6764 23.0148C57.0287 22.3668 56.2135 21.9486 55.3285 21.7982C55.8267 20.2802 55.4745 18.5416 54.2695 17.3367C53.6071 16.6742 52.7832 16.2709 51.9233 16.1232C52.0674 15.686 52.1434 15.2242 52.1434 14.7507C52.1434 13.5825 51.6884 12.4846 50.8628 11.659C50.037 10.8334 48.9391 10.3785 47.7713 10.3785C47.0297 10.3785 46.3166 10.5625 45.6831 10.9077L45.5712 10.7877C44.1163 9.22437 42.057 8.32764 39.9215 8.32764H30.8109C30.1701 8.32764 29.6506 8.84737 29.6506 9.48809V11.0092C29.6506 11.6182 29.7536 12.2109 29.9506 12.7683C29.4258 12.5503 28.858 12.4357 28.2727 12.4357C27.1047 12.4357 26.0068 12.8906 25.181 13.7162C23.9756 14.922 23.6237 16.6615 24.1231 18.18C23.2625 18.3272 22.4374 18.7314 21.7743 19.3943C20.9486 20.2199 20.4937 21.3179 20.4937 22.4856C20.4937 22.9586 20.5695 23.4195 20.713 23.8558C19.8291 24.0067 19.0145 24.4249 18.3674 25.072C17.0362 26.4033 16.7447 28.3871 17.493 30.0038C16.7006 30.1851 15.9728 30.5843 15.3837 31.1729C13.6791 32.8776 13.6791 35.6516 15.3837 37.3563L17.6984 39.6708L6.30318 51.0656C6.28018 51.11 27.4447 62.1445 27.6526 61.9356L35.3001 54.2601C37.2426 55.5062 39.5271 56.0989 41.85 55.9453L47.8354 61.9307C48.0619 62.1572 48.359 62.2705 48.6558 62.2705C48.9527 62.2705 49.2496 62.1572 49.4762 61.9307C49.9292 61.4775 49.9292 60.743 49.4762 60.2899L43.1123 53.9253C42.8714 53.6847 42.5366 53.5614 42.1971 53.5891L41.8293 53.6194C40.1313 53.7585 38.4531 53.3865 36.9878 52.5654L37.7334 51.8173C42.1433 51.545 46.272 49.6872 49.4048 46.5543ZM36.9929 19.3459L33.8061 16.159C34.1674 16.236 34.539 16.2768 34.9172 16.2768H34.9428L38.1268 16.2619C38.7674 16.2587 39.2845 15.7372 39.2816 15.0964C39.2785 14.4575 38.7597 13.9414 38.1158 13.9414L34.9319 13.9564H34.9175C34.133 13.9564 33.3951 13.6519 32.8388 13.0981C32.279 12.5408 31.9707 11.7995 31.9707 11.0092V10.6481H39.9212C41.4147 10.6481 42.8548 11.2752 43.8723 12.3686L43.9196 12.4194L36.9929 19.3459ZM36.6878 25.2238C35.8878 26.0236 34.5862 26.0236 33.7863 25.2238L26.8213 18.2588C26.0213 17.4586 26.0213 16.1572 26.8213 15.357C27.2212 14.9569 27.7467 14.757 28.2721 14.757C28.7974 14.757 29.3229 14.9569 29.7228 15.357L36.6876 22.322C37.0752 22.7094 37.2885 23.2246 37.2885 23.7724C37.2886 24.3207 37.0754 24.8364 36.6878 25.2238ZM32.1454 29.7659C31.3453 30.5657 30.0436 30.5657 29.2437 29.7659L23.4144 23.9365C23.0268 23.5491 22.8135 23.0338 22.8135 22.486C22.8135 21.9377 23.0268 21.4225 23.4145 21.0351C23.8145 20.635 24.34 20.4352 24.8652 20.4352C25.3902 20.4352 25.9152 20.635 26.3149 21.0342L32.1452 26.8646C32.5327 27.252 32.746 27.7668 32.746 28.315C32.7463 28.8633 32.533 29.3785 32.1454 29.7659ZM27.6032 34.3081C26.8031 35.1083 25.5012 35.1083 24.7016 34.3081L20.0076 29.6146C19.2078 28.8144 19.2078 27.513 20.0076 26.7128C20.3953 26.3254 20.9105 26.1119 21.4584 26.1119C22.0065 26.1119 22.5217 26.3254 22.9091 26.7128L27.6028 31.4067C27.9906 31.7941 28.2039 32.3093 28.2039 32.8576C28.2039 33.4055 27.9906 33.9207 27.6032 34.3081ZM23.0607 38.8507C22.6732 39.2386 22.158 39.452 21.61 39.452C21.062 39.452 20.5468 39.2386 20.1593 38.8507L17.0244 35.7159C16.2244 34.9162 16.2244 33.6143 17.0244 32.8141C17.4119 32.4267 17.9271 32.2133 18.4752 32.2133C19.0231 32.2133 19.5384 32.4267 19.9259 32.8141L23.0608 35.9493C23.8607 36.7491 23.8607 38.0509 23.0607 38.8507Z" fill="#642190"/>
</svg>
