<svg width="36" height="51" viewBox="0 0 36 51" fill="none" xmlns="http://www.w3.org/2000/svg">
<path d="M6.56085 31.429C7.85999 32.5295 8.72143 34.0204 9.03267 35.648H16.5911V25.062C14.0314 24.4007 12.1349 22.0719 12.1349 19.3084H15.1057C15.1057 20.9465 16.4384 22.2792 18.0765 22.2792C19.7146 22.2792 21.0473 20.9465 21.0473 19.3084H24.0182C24.0182 22.0718 22.1217 24.4007 19.5619 25.062V35.6479H27.1221C27.4367 34.0207 28.3063 32.5224 29.6178 31.4072C33.6111 28.0116 35.9014 23.0603 35.9014 17.823C35.9014 1.84471 16.4148 -6.00231 5.31746 5.3983C-1.92499 12.839 -1.30587 24.7651 6.56085 31.429Z" fill="black"/>
<path d="M18.0766 50.6999C21.3529 50.6999 24.0183 48.0345 24.0183 44.7583H12.135C12.135 48.0345 14.8004 50.6999 18.0766 50.6999Z" fill="black"/>
<path d="M9.16431 38.6187H26.9892V41.7875H9.16431V38.6187Z" fill="black"/>
</svg>
