<svg width="69" height="70" viewBox="0 0 69 70" fill="none" xmlns="http://www.w3.org/2000/svg">
<path fill-rule="evenodd" clip-rule="evenodd" d="M58.0174 55.9557L49.4843 41.1777C52.8213 37.5547 54.8235 32.7399 54.8235 27.4485C54.8235 21.8233 52.5353 16.7702 48.8646 13.0995C45.1939 9.42883 40.1408 7.14062 34.5156 7.14062C28.8905 7.14062 23.8373 9.42883 20.1667 13.0995C16.496 16.7702 14.2078 21.8233 14.2078 27.4485C14.2078 32.7399 16.21 37.5547 19.5469 41.1777L11.0138 55.9557C10.8708 56.194 10.8232 56.5277 10.9185 56.8614C11.1092 57.3858 11.6812 57.6242 12.2056 57.4335L19.0226 54.7162L20.0713 62.0099C20.119 62.2959 20.262 62.582 20.548 62.725C21.0247 63.011 21.6445 62.8203 21.9305 62.3436L30.5589 47.4226C31.7984 47.6609 33.1332 47.804 34.4203 47.804C35.7551 47.804 37.0422 47.6609 38.2816 47.4226L46.9101 62.3436C47.1961 62.8203 47.8158 62.9633 48.2925 62.725C48.5786 62.582 48.7216 62.2959 48.7692 62.0099L49.818 54.7162L56.635 57.4335C57.1593 57.6242 57.7314 57.3858 57.9221 56.8614C58.2081 56.5277 58.1604 56.194 58.0174 55.9557ZM34.5156 45.7541C29.4625 45.7541 24.8861 43.7043 21.5968 40.415C18.3075 37.1257 16.2576 32.5492 16.2576 27.4961C16.2576 22.443 18.3075 17.8666 21.5968 14.5773C24.8861 11.1927 29.4625 9.14281 34.5156 9.14281C39.5688 9.14281 44.1452 11.1927 47.4345 14.482C50.7238 17.7712 52.7736 22.3477 52.7736 27.4008C52.7736 32.4539 50.7238 37.0303 47.4345 40.3196C44.1452 43.7043 39.5688 45.7541 34.5156 45.7541ZM45.7183 16.2457C42.8581 13.3855 38.9014 11.6216 34.5156 11.6216C30.1299 11.6216 26.1732 13.3855 23.313 16.2457C20.4527 19.106 18.6889 23.0627 18.6889 27.4484C18.6889 31.8341 20.4527 35.7908 23.313 38.6511C26.1732 41.5113 30.1299 43.2752 34.5156 43.2752C38.9014 43.2752 42.8581 41.5113 45.7183 38.6511C48.5786 35.7908 50.3424 31.8341 50.3424 27.4484C50.3424 23.0627 48.5786 19.106 45.7183 16.2457ZM44.2177 22.666C44.5999 22.8298 44.9276 23.1029 45.2006 23.4851C45.6375 24.0858 45.8013 24.7957 45.8559 25.3964C45.7467 26.0517 45.419 26.6524 44.8183 27.0893L40.9958 29.8197L42.4702 34.2976C42.5248 34.2976 42.5248 34.3522 42.5248 34.4068C42.634 34.7891 42.634 35.1167 42.5794 35.499C42.4702 35.8813 42.361 36.2635 42.0879 36.5912C41.6511 37.1919 41.0504 37.5195 40.3951 37.6287C39.7398 37.6833 39.0845 37.5741 38.4838 37.1373L34.6612 34.3522L30.8386 37.1373C30.2925 37.5741 29.5826 37.7379 28.9273 37.6287C28.272 37.5195 27.6713 37.1919 27.2344 36.5912C26.9614 36.2635 26.7976 35.8813 26.7429 35.499C26.6883 35.1167 26.6883 34.7345 26.7976 34.4068C26.8522 34.4068 26.8522 34.3522 26.8522 34.2976L28.3266 29.8197L24.504 27.0893C23.9033 26.6524 23.5757 26.0517 23.4664 25.3964C23.3572 24.7411 23.4664 24.0858 23.9033 23.4851C24.1763 23.1029 24.504 22.8298 24.8863 22.666C25.2685 22.5022 25.7054 22.393 26.1423 22.4476H30.6748L32.0946 17.9697C32.313 17.2598 32.7499 16.7683 33.3506 16.4406C33.7328 16.2768 34.1151 16.1676 34.552 16.1676C34.9888 16.1676 35.3711 16.2768 35.7533 16.4406C36.2994 16.7683 36.7909 17.3144 37.0093 17.9697L38.4292 22.4476H42.9617C43.3985 22.393 43.8354 22.5022 44.2177 22.666Z" fill="#FF9400"/>
</svg>
