<svg width="69" height="70" viewBox="0 0 69 70" fill="none" xmlns="http://www.w3.org/2000/svg">
<path d="M40.7108 19.8532C43.3097 21.4827 45.1322 24.2402 45.464 27.441C46.5239 27.9362 47.7002 28.221 48.9474 28.221C53.5007 28.221 57.1911 24.5306 57.1911 19.978C57.1911 15.4248 53.5007 11.7344 48.9474 11.7344C44.4377 11.7358 40.7795 15.3603 40.7108 19.8532ZM35.3102 36.7319C39.8634 36.7319 43.5539 33.0408 43.5539 28.4883C43.5539 23.9357 39.8627 20.2453 35.3102 20.2453C30.7577 20.2453 27.0651 23.9364 27.0651 28.489C27.0651 33.0415 30.7577 36.7319 35.3102 36.7319ZM38.807 37.2938H31.812C25.9919 37.2938 21.257 42.0294 21.257 47.8495V56.4039L21.2787 56.5379L21.8679 56.7224C27.4222 58.4578 32.2476 59.0365 36.2193 59.0365C43.9768 59.0365 48.4733 56.8248 48.7503 56.6838L49.301 56.4053H49.3599V47.8495C49.362 42.0294 44.6271 37.2938 38.807 37.2938ZM52.4457 28.7836H45.5046C45.4296 31.5607 44.2441 34.0614 42.3691 35.86C47.5424 37.3983 51.3275 42.1957 51.3275 47.8621V50.4983C58.1809 50.2471 62.1302 48.3048 62.3904 48.1743L62.9411 47.8951H63V39.3379C63 33.5185 58.2651 28.7836 52.4457 28.7836ZM20.8452 28.2224C22.4579 28.2224 23.9583 27.7517 25.2294 26.9499C25.6334 24.3145 27.0462 22.0116 29.0643 20.4431C29.0727 20.2888 29.0875 20.1359 29.0875 19.9801C29.0875 15.4269 25.3963 11.7365 20.8452 11.7365C16.2913 11.7365 12.6015 15.4269 12.6015 19.9801C12.6015 24.5313 16.2913 28.2224 20.8452 28.2224ZM28.2485 35.86C26.3826 34.0706 25.2013 31.5831 25.115 28.8229C24.8576 28.8039 24.603 28.7836 24.3406 28.7836H17.3463C11.5262 28.7836 6.79126 33.5185 6.79126 39.3379V47.8937L6.81301 48.0256L7.40224 48.2115C11.858 49.6025 15.8346 50.2436 19.2886 50.4457V47.8621C19.29 42.1957 23.0738 37.3997 28.2485 35.86Z" fill="#FF9400"/>
</svg>
