<svg width="234" height="47" viewBox="0 0 234 47" fill="none" xmlns="http://www.w3.org/2000/svg">
<path fill-rule="evenodd" clip-rule="evenodd" d="M22.9073 5.8683C22.9073 6.58509 22.4011 7.18365 21.7267 7.32604L22.1064 9.39713C22.2442 9.41302 22.3762 9.44771 22.4999 9.49856L23.7112 7.76408C23.6018 7.60428 23.5378 7.41093 23.5378 7.20262C23.5378 6.65313 23.9832 6.20768 24.5327 6.20768C25.0822 6.20768 25.5277 6.65313 25.5277 7.20262C25.5277 7.40994 25.4643 7.60245 25.3558 7.76182L26.4939 9.42353C26.549 9.41006 26.6054 9.40019 26.663 9.39416L27.0891 7.89262C26.8617 7.71028 26.7161 7.43011 26.7161 7.11592C26.7161 6.56643 27.1615 6.12098 27.711 6.12098C28.2605 6.12098 28.706 6.56643 28.706 7.11592C28.706 7.14169 28.705 7.16723 28.7031 7.1925L29.9153 7.70922C30.0378 7.61536 30.191 7.55957 30.3572 7.55957C30.7587 7.55957 31.0841 7.88502 31.0841 8.28649C31.0841 8.68795 30.7587 9.0134 30.3572 9.0134C29.9557 9.0134 29.6303 8.68795 29.6303 8.28649L29.6304 8.27383L28.4574 7.77386C28.2751 7.98051 28.0083 8.11087 27.711 8.11087C27.7018 8.11087 27.6926 8.11074 27.6834 8.11049L27.2925 9.48782C27.5844 9.61189 27.8202 9.84214 27.9516 10.1301L29.3397 9.92597C29.4058 9.87835 29.487 9.85029 29.5748 9.85029C29.6249 9.85029 29.6729 9.85946 29.7172 9.8762L31.1285 9.9044C31.2541 9.49884 31.6322 9.20425 32.0791 9.20425C32.6285 9.20425 33.074 9.6497 33.074 10.1992C33.074 10.7487 32.6285 11.1941 32.0791 11.1941C31.6478 11.1941 31.2806 10.9197 31.1425 10.5359L29.8846 10.5108C29.8107 10.5996 29.6994 10.6561 29.5748 10.6561C29.4788 10.6561 29.3907 10.6226 29.3215 10.5666L28.0618 10.7518C28.0171 11.3521 27.5547 11.836 26.9643 11.914L26.8541 13.699C27.7346 13.9146 28.3879 14.709 28.3879 15.6559C28.3879 16.1175 28.2327 16.5427 27.9717 16.8824C28.5783 17.5377 29.4539 18.4791 29.6879 18.7134C29.7969 18.6829 29.9119 18.6665 30.0306 18.6665C30.7039 18.6665 31.2545 19.1913 31.2958 19.8542L32.2193 20.1489C32.417 19.8838 32.733 19.7121 33.0891 19.7121C33.2182 19.7121 33.342 19.7347 33.4568 19.7761L34.4545 18.2996C34.328 18.1223 34.2536 17.9052 34.2536 17.6708C34.2536 17.4735 34.3062 17.2886 34.3983 17.1292L33.8059 16.6091C33.709 16.6607 33.5983 16.6899 33.4809 16.6899C33.2001 16.6899 32.9584 16.5229 32.8497 16.2827L31.9612 16.2827C31.9093 16.9352 31.3634 17.4485 30.6976 17.4485C29.9975 17.4485 29.4299 16.8809 29.4299 16.1808C29.4299 15.684 29.7157 15.2539 30.1319 15.046L29.9939 14.2455C29.3413 14.193 28.828 13.6468 28.828 12.9807C28.828 12.2799 29.3961 11.7118 30.0969 11.7118C30.6986 11.7118 31.2024 12.1306 31.3329 12.6926L32.9129 13.0463C33.0944 12.8062 33.3824 12.6511 33.7066 12.6511C34.2557 12.6511 34.7009 13.0963 34.7009 13.6454C34.7009 14.1946 34.2557 14.6398 33.7066 14.6398C33.1583 14.6398 32.7137 14.196 32.7122 13.6481L31.3155 13.3354C31.2112 13.6945 30.9525 13.9878 30.616 14.1389L30.7497 14.9142C31.2386 14.9339 31.6562 15.2306 31.8499 15.6516L32.8807 15.6516C33.0004 15.4444 33.2243 15.3049 33.4809 15.3049C33.8633 15.3049 34.1734 15.6149 34.1734 15.9974C34.1734 16.0277 34.1714 16.0576 34.1676 16.0868L34.8618 16.6963C35.0055 16.626 35.1671 16.5865 35.3379 16.5865C35.9367 16.5865 36.4221 17.0719 36.4221 17.6708C36.4221 18.2696 35.9367 18.755 35.3379 18.755C35.2032 18.755 35.0743 18.7305 34.9553 18.6856L33.9629 20.1544C34.0952 20.3341 34.1733 20.5561 34.1733 20.7964C34.1733 21.3952 33.6879 21.8807 33.0891 21.8807C32.4902 21.8807 32.0048 21.3952 32.0048 20.7964C32.0048 20.7786 32.0052 20.7609 32.0061 20.7433L31.1759 20.4784C31.0903 20.6583 30.9635 20.8149 30.8077 20.9359L31.2585 22.4688C31.5103 22.5725 31.6876 22.8203 31.6876 23.1094C31.6876 23.2566 31.6417 23.3931 31.5634 23.5052L31.599 23.6264L31.481 23.6028C31.356 23.7259 31.1844 23.802 30.9951 23.802C30.7078 23.802 30.4613 23.627 30.3565 23.3779L28.0297 22.9125C27.8505 23.2627 27.486 23.5024 27.0657 23.5024C26.6826 23.5024 26.3461 23.3034 26.1537 23.0032L24.3387 23.3813C24.2172 23.8466 23.8481 24.2118 23.3806 24.3276L23.2891 25.6998C23.4415 25.833 23.5378 26.0289 23.5378 26.2473C23.5378 26.6487 23.2124 26.9742 22.8109 26.9742C22.6475 26.9742 22.4967 26.9202 22.3753 26.8292L21.5354 27.3667C21.5549 27.4495 21.5652 27.5358 21.5652 27.6245C21.5652 28.2438 21.0631 28.7458 20.4438 28.7458C19.8626 28.7458 19.3846 28.3036 19.3281 27.7372L17.8541 27.2306C17.7229 27.3595 17.543 27.4391 17.3445 27.4391C16.9431 27.4391 16.6176 27.1136 16.6176 26.7122C16.6176 26.6542 16.6244 26.5977 16.6372 26.5437L15.2959 25.4199C15.1406 25.5201 14.9557 25.5783 14.7571 25.5783C14.4398 25.5783 14.1573 25.4298 13.9751 25.1986L12.8747 25.644C13.0038 25.8696 13.0776 26.1309 13.0776 26.4095C13.0776 26.5668 13.0541 26.7185 13.0104 26.8615L14.3484 27.6522C14.5553 27.5174 14.8023 27.4392 15.0675 27.4392C15.7962 27.4392 16.3868 28.0298 16.3868 28.7585C16.3868 29.4871 15.7962 30.0778 15.0675 30.0778C15.0415 30.0778 15.0157 30.0771 14.9901 30.0756L14.6742 31.1075C14.8213 31.2405 14.9137 31.4329 14.9137 31.6468C14.9137 31.9298 14.7519 32.1751 14.5157 32.2952L14.5539 33.2206C15.0569 33.2704 15.4497 33.6946 15.4497 34.2107C15.4497 34.7554 15.012 35.1979 14.4691 35.2055L13.9499 36.3553C14.0336 36.4737 14.0828 36.6184 14.0828 36.7745C14.0828 37.1759 13.7574 37.5014 13.3559 37.5014C12.9545 37.5014 12.629 37.1759 12.629 36.7745C12.629 36.663 12.6541 36.5574 12.699 36.4629L11.5426 33.9188C11.467 33.9323 11.3891 33.9393 11.3097 33.9393C10.581 33.9393 9.99034 33.3486 9.99034 32.62C9.99034 31.8913 10.581 31.3007 11.3097 31.3007C12.0383 31.3007 12.629 31.8913 12.629 32.62C12.629 33.0436 12.4294 33.4206 12.1191 33.6619L13.2101 36.0622C13.2572 36.0526 13.306 36.0476 13.3559 36.0476C13.3693 36.0476 13.3826 36.0479 13.3958 36.0486L13.8642 35.0115C13.6189 34.8303 13.4598 34.5391 13.4598 34.2107C13.4598 33.8546 13.647 33.5421 13.9282 33.3663L13.8846 32.3081C13.634 32.1934 13.4598 31.9404 13.4598 31.6468C13.4598 31.2855 13.7234 30.9858 14.0687 30.9294L14.3872 29.8891C14.0042 29.6582 13.7482 29.2382 13.7482 28.7585C13.7482 28.5293 13.8066 28.3137 13.9095 28.1259L12.7057 27.4145C12.4226 27.7442 12.0027 27.9531 11.534 27.9531C10.6815 27.9531 9.99034 27.262 9.99034 26.4095C9.99034 26.0567 10.1087 25.7316 10.3078 25.4717L9.58617 24.8426C9.42096 24.9647 9.21661 25.0369 8.9954 25.0369C8.82033 25.0369 8.65583 24.9917 8.51293 24.9123L7.00363 26.2425C7.03472 26.3234 7.05176 26.4113 7.05176 26.5031C7.05176 26.9046 6.72631 27.2301 6.32484 27.2301C5.92338 27.2301 5.59793 26.9046 5.59793 26.5031C5.59793 26.4479 5.60409 26.3941 5.61577 26.3423L4.23469 25.6653C3.97697 26.1102 3.49573 26.4095 2.9446 26.4095C2.12176 26.4095 1.45472 25.7424 1.45472 24.9196C1.45472 24.0967 2.12176 23.4297 2.9446 23.4297C3.76744 23.4297 4.43449 24.0967 4.43449 24.9196C4.43449 24.966 4.43236 25.012 4.4282 25.0573L6.02573 25.8404C6.11696 25.7992 6.21822 25.7762 6.32484 25.7762C6.40013 25.7762 6.47275 25.7877 6.54105 25.8089L8.08636 24.447C8.03115 24.3232 8.00045 24.1862 8.00045 24.0419C8.00045 23.4924 8.4459 23.047 8.9954 23.047C9.54489 23.047 9.99034 23.4924 9.99034 24.0419C9.99034 24.1394 9.97632 24.2336 9.95019 24.3226L10.7913 25.0559C11.0117 24.9348 11.2648 24.8658 11.534 24.8658C11.8644 24.8658 12.1706 24.9697 12.4217 25.1465L13.7623 24.6038L13.7621 24.5833C13.7621 24.0338 14.2076 23.5884 14.7571 23.5884C15.3066 23.5884 15.752 24.0338 15.752 24.5833C15.752 24.7043 15.7304 24.8202 15.6909 24.9274L17.0356 26.054C17.1293 26.0099 17.234 25.9853 17.3445 25.9853C17.7204 25.9853 18.0297 26.2706 18.0675 26.6366L19.4468 27.1107C19.6332 26.7498 20.0097 26.5031 20.4438 26.5031C20.7463 26.5031 21.0208 26.6229 21.2225 26.8176L22.0843 26.2661L22.084 26.2473C22.084 25.8949 22.3348 25.601 22.6676 25.5345L22.748 24.3287C22.3086 24.2213 21.9554 23.8939 21.812 23.4699L20.2389 23.7227C20.1138 24.1292 19.7353 24.4247 19.2878 24.4247C18.7383 24.4247 18.2928 23.9792 18.2928 23.4298C18.2928 22.9894 18.5789 22.6158 18.9754 22.4848L19.0608 20.947C18.8241 20.87 18.6263 20.7067 18.5046 20.4942L17.6877 20.821C17.7198 20.9426 17.7369 21.0703 17.7369 21.202C17.7369 22.0249 17.0698 22.6919 16.247 22.6919C15.4241 22.6919 14.7571 22.0249 14.7571 21.202C14.7571 20.7857 14.9279 20.4092 15.2032 20.1389C15.0135 19.8909 14.6735 19.4497 14.3967 19.0911C14.0705 19.2995 13.683 19.4203 13.2672 19.4203C13.0073 19.4203 12.7584 19.3731 12.5287 19.2868L12.2704 20.6749C12.4895 20.8575 12.629 21.1324 12.629 21.4398C12.629 21.9893 12.1836 22.4348 11.6341 22.4348C11.0951 22.4348 10.6562 22.0062 10.6396 21.4713L9.10354 21.287C8.93665 21.9274 8.35438 22.4001 7.66171 22.4001C7.34991 22.4001 7.06048 22.3043 6.82124 22.1405L6.21502 22.9039C6.24542 22.984 6.26207 23.0709 6.26207 23.1617C6.26207 23.5632 5.93662 23.8886 5.53515 23.8886C5.13369 23.8886 4.80824 23.5632 4.80824 23.1617L4.80829 23.153L3.19874 22.2476C2.95247 22.5204 2.59607 22.6919 2.19963 22.6919C1.45646 22.6919 0.854004 22.0894 0.854004 21.3462C0.854004 20.6031 1.45646 20.0006 2.19963 20.0006C2.50418 20.0006 2.7851 20.1018 3.01061 20.2724L3.61665 19.7911C3.57062 19.6765 3.54529 19.5514 3.54529 19.4204C3.54529 18.8709 3.99074 18.4254 4.54023 18.4254C5.08972 18.4254 5.53517 18.8709 5.53517 19.4204C5.53517 19.9699 5.08972 20.4153 4.54023 20.4153C4.35194 20.4153 4.17587 20.363 4.02575 20.2722L3.41124 20.7601C3.4971 20.9373 3.54525 21.1362 3.54525 21.3462C3.54525 21.4662 3.52956 21.5824 3.50014 21.693L5.08975 22.5872C5.21279 22.4917 5.36733 22.4348 5.53515 22.4348C5.61171 22.4348 5.6855 22.4466 5.7548 22.4686L6.38378 21.6765C6.24921 21.4526 6.17183 21.1904 6.17183 20.9102C6.17183 20.0873 6.83887 19.4203 7.66171 19.4203L7.67038 19.4203L7.99116 18.1372C7.54186 17.9192 7.23208 17.4587 7.23208 16.9258C7.23208 16.6111 7.3401 16.3216 7.52109 16.0925L7.18888 15.5742C7.08492 15.611 6.97303 15.6311 6.85645 15.6311C6.30695 15.6311 5.8615 15.1856 5.8615 14.6361C5.8615 14.5982 5.86362 14.5608 5.86775 14.524L5.11375 14.1165C5.01291 14.1878 4.89311 14.2341 4.76339 14.2463L3.9928 15.122C4.26553 15.392 4.43449 15.7667 4.43449 16.1808C4.43449 17.0036 3.76744 17.6707 2.9446 17.6707C2.12176 17.6707 1.45472 17.0036 1.45472 16.1808C1.45472 15.3579 2.12176 14.6909 2.9446 14.6909C3.12318 14.6909 3.29443 14.7223 3.4531 14.7799L4.14283 13.9962C4.03352 13.869 3.96747 13.7035 3.96747 13.5226C3.96747 13.1212 4.29292 12.7957 4.69438 12.7957C5.09585 12.7957 5.4213 13.1212 5.4213 13.5226C5.4213 13.5367 5.42089 13.5507 5.4201 13.5646L6.13495 13.951C6.31623 13.7602 6.57244 13.6412 6.85645 13.6412C7.40594 13.6412 7.85139 14.0866 7.85139 14.6361C7.85139 14.8381 7.7912 15.0261 7.68777 15.183L8.01977 15.7009C8.18975 15.6234 8.37868 15.5802 8.5777 15.5802C8.7151 15.5802 8.8477 15.6008 8.97256 15.639L9.44242 14.9261C9.35234 14.8051 9.29903 14.6551 9.29903 14.4926C9.29903 14.2729 9.39646 14.076 9.55046 13.9427L9.20649 12.7388C8.98655 12.6507 8.83122 12.4355 8.83122 12.1841L8.83122 12.1831L8.1104 11.7777C7.84357 12.0296 7.48373 12.184 7.08781 12.184C6.26497 12.184 5.59793 11.517 5.59793 10.6941C5.59793 9.87129 6.26497 9.20425 7.08781 9.20425C7.52353 9.20425 7.91557 9.3913 8.18801 9.68947C8.60777 9.6045 9.0737 9.5112 9.49867 9.42798C9.60674 9.40682 9.71227 9.38629 9.8138 9.3667C9.85137 8.85148 10.2813 8.44516 10.8061 8.44516C11.3556 8.44516 11.801 8.89061 11.801 9.4401C11.801 9.63605 11.7444 9.81877 11.6466 9.97278C11.7161 10.0992 11.7891 10.237 11.8632 10.3802C12.0042 10.6526 12.1518 10.9501 12.2907 11.2368C12.3684 11.2448 12.4441 11.2594 12.5173 11.28L13.3096 8.02257C13.1675 8.0676 13.0162 8.0919 12.8591 8.0919C12.2241 8.0919 11.6818 7.69455 11.4674 7.13491L9.51426 7.47167C9.42509 7.77224 9.14678 7.99149 8.81727 7.99149C8.4158 7.99149 8.09035 7.66604 8.09035 7.26458C8.09035 6.86312 8.4158 6.53767 8.81727 6.53767C9.06403 6.53767 9.28207 6.66062 9.41347 6.8486L11.372 6.51091C11.4191 5.7305 12.0669 5.11213 12.8591 5.11213C13.682 5.11213 14.349 5.77917 14.349 6.60201C14.349 6.9029 14.2598 7.18295 14.1064 7.41718L13.0871 11.608C13.1239 11.6436 13.1588 11.6814 13.1914 11.721L15.3007 11.4267C15.5056 10.8489 16.0571 10.4351 16.7052 10.4351C17.528 10.4351 18.1951 11.1021 18.1951 11.925C18.1951 12.0777 18.1721 12.2251 18.1294 12.3638L20.4346 14.0306C20.6969 13.8002 21.0408 13.6605 21.4174 13.6605C22.2402 13.6605 22.9073 14.3275 22.9073 15.1504C22.9073 15.9732 22.2402 16.6402 21.4174 16.6402C20.9848 16.6402 20.5952 16.4558 20.323 16.1614L18.704 16.9409C18.713 16.9782 18.7199 17.0163 18.7246 17.0552L21.1751 17.9303C21.2993 17.8313 21.4567 17.7721 21.6279 17.7721C21.9816 17.7721 22.2763 18.0247 22.3414 18.3594L24.3238 19.1127C24.4912 18.9159 24.7175 18.7708 24.9756 18.7049L25.116 17.2305C24.6542 16.8613 24.3584 16.2932 24.3584 15.6559C24.3584 14.593 25.1815 13.7224 26.225 13.6466L26.3366 11.839C25.8632 11.6548 25.5277 11.1947 25.5277 10.6561C25.5277 10.2879 25.6845 9.95625 25.9351 9.72446L24.8532 8.14485C24.7526 8.17903 24.6448 8.19757 24.5327 8.19757C24.4215 8.19757 24.3145 8.17931 24.2146 8.14561L23.0194 9.85684C23.2701 10.1234 23.4236 10.4823 23.4236 10.8771C23.4236 11.6999 22.7566 12.367 21.9337 12.367C21.1109 12.367 20.4438 11.6999 20.4438 10.8771C20.4438 10.2139 20.8771 9.65195 21.4761 9.45883L21.0841 7.32076C20.7306 7.23998 20.4251 7.03349 20.2169 6.75083L19.5575 7.62216C19.616 7.73236 19.6492 7.85809 19.6492 7.99156C19.6492 8.42725 19.296 8.78045 18.8603 8.78045C18.5084 8.78045 18.2103 8.55007 18.1087 8.23191H17.1954C17.1274 8.71512 16.7122 9.08686 16.2103 9.08686C15.7083 9.08686 15.2931 8.71512 15.2251 8.23191H15.1235L15.2163 8.13749C15.2157 8.12238 15.2153 8.10719 15.2153 8.09192C15.2153 7.54243 15.6608 7.09697 16.2103 7.09697C16.2199 7.09697 16.2295 7.09711 16.2391 7.09738L17.7406 5.57041C17.7207 5.501 17.71 5.42766 17.71 5.35183C17.71 4.91614 18.0632 4.56294 18.4989 4.56294C18.9345 4.56294 19.2877 4.91614 19.2877 5.35183C19.2877 5.78752 18.9345 6.14072 18.4989 6.14072C18.3722 6.14072 18.2525 6.11088 18.1465 6.05784L16.8746 7.35126C16.9543 7.42281 17.0224 7.50704 17.0757 7.60078H18.1748C18.3107 7.36296 18.5668 7.20266 18.8603 7.20266C18.9306 7.20266 18.9987 7.21185 19.0635 7.22909L19.9126 6.10702L19.9516 6.13649C19.9358 6.04949 19.9275 5.95986 19.9275 5.8683C19.9275 5.04546 20.5946 4.37842 21.4174 4.37842C22.2402 4.37842 22.9073 5.04546 22.9073 5.8683ZM15.2228 12.0748L13.4729 12.319C13.4889 12.402 13.4973 12.4877 13.4973 12.5753C13.4973 13.3185 12.8949 13.921 12.1517 13.921C11.4085 13.921 10.8061 13.3185 10.8061 12.5753C10.8061 12.0152 11.1484 11.5349 11.6352 11.3324C11.525 11.1074 11.4117 10.8809 11.3027 10.6703C11.2491 10.5667 11.1969 10.4677 11.147 10.3751C11.0406 10.4139 10.9258 10.435 10.8061 10.435C10.4553 10.435 10.147 10.2536 9.96982 9.97937C9.858 10.0009 9.74072 10.0237 9.61996 10.0474C9.26369 10.1171 8.87829 10.194 8.51561 10.2672C8.556 10.4024 8.57769 10.5457 8.57769 10.6941C8.57769 10.8925 8.53891 11.0819 8.46852 11.255L9.16606 11.6474C9.24529 11.6085 9.3344 11.5867 9.42859 11.5867C9.75851 11.5867 10.026 11.8542 10.026 12.1841C10.026 12.3592 9.95063 12.5167 9.83062 12.6259L10.1598 13.778C10.4973 13.8408 10.7529 14.1368 10.7529 14.4926C10.7529 14.894 10.4274 15.2195 10.0259 15.2195L10.0051 15.2192L9.51604 15.9613C9.76727 16.2058 9.92332 16.5475 9.92332 16.9258C9.92332 17.6587 9.33731 18.2548 8.60825 18.2711L8.28669 19.5573C8.72309 19.7592 9.04527 20.1661 9.12974 20.6544L10.8269 20.8581C11.0075 20.6078 11.3018 20.4449 11.6341 20.4449C11.6465 20.4449 11.6588 20.4451 11.6711 20.4456L11.9485 18.9548C11.4717 18.5697 11.1668 17.9804 11.1668 17.3199C11.1668 16.1599 12.1072 15.2195 13.2672 15.2195C14.4272 15.2195 15.3676 16.1599 15.3676 17.3199C15.3676 17.8361 15.1814 18.3088 14.8725 18.6746C15.1697 19.0596 15.551 19.5543 15.7392 19.8009C15.8977 19.7435 16.0687 19.7121 16.247 19.7121C16.711 19.7121 17.1255 19.9243 17.3987 20.2568L18.3832 19.863C18.4501 19.3786 18.8658 19.0056 19.3687 19.0056C19.9182 19.0056 20.3636 19.4511 20.3636 20.0005C20.3636 20.4364 20.0834 20.8068 19.6933 20.9413L19.6074 22.4873C19.8918 22.5837 20.1184 22.8052 20.2218 23.0862L21.7591 22.8392C21.8587 22.2093 22.4042 21.7276 23.0621 21.7276C23.6835 21.7276 24.2045 22.1571 24.3445 22.7354L25.9837 22.3939C25.9977 21.8083 26.4767 21.3379 27.0657 21.3379C27.6196 21.3379 28.0764 21.7542 28.1403 22.291L30.4065 22.7442C30.4604 22.6577 30.5328 22.5839 30.6182 22.5283L30.2238 21.1873C30.1608 21.1969 30.0963 21.2019 30.0306 21.2019C29.3305 21.2019 28.7629 20.6344 28.7629 19.9342C28.7629 19.5871 28.9024 19.2726 29.1284 19.0437C28.792 18.6942 28.0469 17.8928 27.5138 17.3169C27.1895 17.5401 26.7966 17.6707 26.3731 17.6707C26.1439 17.6707 25.9237 17.6324 25.7184 17.5619L25.6095 18.7057C26.156 18.847 26.5597 19.3435 26.5597 19.9342C26.5597 20.635 25.9917 21.2031 25.2909 21.2031C24.5901 21.2031 24.022 20.635 24.022 19.9342C24.022 19.8481 24.0306 19.764 24.0469 19.6826L22.1792 18.9729C22.0459 19.1278 21.8483 19.226 21.6279 19.226C21.2276 19.226 20.9029 18.9024 20.901 18.5026L18.5952 17.6791C18.4224 17.9732 18.1027 18.1706 17.7369 18.1706C17.1874 18.1706 16.7419 17.7252 16.7419 17.1757C16.7419 16.6262 17.1874 16.1808 17.7369 16.1808C17.9749 16.1808 18.1934 16.2644 18.3647 16.4038L20.0016 15.6156C19.9535 15.4692 19.9275 15.3128 19.9275 15.1504C19.9275 14.932 19.9745 14.7246 20.0589 14.5378L17.817 12.9167C17.5442 13.2224 17.1472 13.4149 16.7052 13.4149C16.5855 13.4149 16.4692 13.4007 16.3577 13.3741L15.7207 14.2806C15.7411 14.3477 15.752 14.4189 15.752 14.4926C15.752 14.894 15.4266 15.2195 15.0251 15.2195C14.6237 15.2195 14.2982 14.894 14.2982 14.4926C14.2982 14.0911 14.6237 13.7657 15.0251 13.7657C15.1145 13.7657 15.2 13.7818 15.2791 13.8113L15.7825 13.0949C15.4739 12.8511 15.264 12.4878 15.2228 12.0748ZM13.5392 7.19183C13.6764 7.03385 13.7594 6.82761 13.7594 6.60198C13.7594 6.10478 13.3563 5.70172 12.8591 5.70172C12.3619 5.70172 11.9589 6.10478 11.9589 6.60198C11.9589 7.09918 12.3619 7.50224 12.8591 7.50224C13.1109 7.50224 13.3385 7.3989 13.5019 7.23232L13.5133 7.18552L13.5392 7.19183ZM21.4174 6.76856C21.9146 6.76856 22.3177 6.3655 22.3177 5.8683C22.3177 5.3711 21.9146 4.96804 21.4174 4.96804C20.9202 4.96804 20.5172 5.3711 20.5172 5.8683C20.5172 6.3655 20.9202 6.76856 21.4174 6.76856ZM22.834 10.8771C22.834 11.3743 22.4309 11.7774 21.9337 11.7774C21.4365 11.7774 21.0335 11.3743 21.0335 10.8771C21.0335 10.3799 21.4365 9.97686 21.9337 9.97686C22.4309 9.97686 22.834 10.3799 22.834 10.8771ZM17.1473 21.202C17.1473 21.6992 16.7442 22.1022 16.247 22.1022C15.7498 22.1022 15.3467 21.6992 15.3467 21.202C15.3467 20.7048 15.7498 20.3017 16.247 20.3017C16.7442 20.3017 17.1473 20.7048 17.1473 21.202ZM2.94462 17.081C3.44182 17.081 3.84488 16.6779 3.84488 16.1807C3.84488 15.6835 3.44182 15.2805 2.94462 15.2805C2.44742 15.2805 2.04436 15.6835 2.04436 16.1807C2.04436 16.6779 2.44742 17.081 2.94462 17.081ZM3.84488 24.9197C3.84488 25.4169 3.44182 25.8199 2.94462 25.8199C2.44742 25.8199 2.04436 25.4169 2.04436 24.9197C2.04436 24.4225 2.44742 24.0194 2.94462 24.0194C3.44182 24.0194 3.84488 24.4225 3.84488 24.9197ZM7.66175 21.8104C8.15894 21.8104 8.562 21.4074 8.562 20.9102C8.562 20.413 8.15894 20.0099 7.66175 20.0099C7.16455 20.0099 6.76149 20.413 6.76149 20.9102C6.76149 21.4074 7.16455 21.8104 7.66175 21.8104ZM8.67342 30.0965C8.97889 29.9959 9.23305 29.7824 9.38644 29.5053L10.8516 29.7322C10.9556 30.0066 11.2208 30.2016 11.5316 30.2016C11.933 30.2016 12.2585 29.8761 12.2585 29.4747C12.2585 29.0732 11.933 28.7478 11.5316 28.7478C11.2662 28.7478 11.0341 28.8899 10.9072 29.1022L9.54426 28.891C9.54363 28.1915 8.9763 27.6245 8.27657 27.6245C7.57644 27.6245 7.00887 28.1921 7.00887 28.8922C7.00887 29.5127 7.45459 30.029 8.04329 30.1385L8.06502 30.834C7.75948 30.92 7.5355 31.2008 7.5355 31.5338C7.5355 31.9353 7.86095 32.2607 8.26242 32.2607C8.66388 32.2607 8.98933 31.9353 8.98933 31.5338C8.98933 31.2967 8.87582 31.0862 8.70019 30.9535L8.67342 30.0965ZM9.04256 28.8922C9.04256 29.3152 8.69961 29.6582 8.27655 29.6582C7.8535 29.6582 7.51055 29.3152 7.51055 28.8922C7.51055 28.4691 7.8535 28.1262 8.27655 28.1262C8.69961 28.1262 9.04256 28.4691 9.04256 28.8922ZM30.6976 16.9468C31.1207 16.9468 31.4636 16.6039 31.4636 16.1808C31.4636 15.7578 31.1207 15.4148 30.6976 15.4148C30.2746 15.4148 29.9316 15.7578 29.9316 16.1808C29.9316 16.6039 30.2746 16.9468 30.6976 16.9468ZM30.7966 19.9342C30.7966 20.3573 30.4537 20.7002 30.0306 20.7002C29.6076 20.7002 29.2646 20.3573 29.2646 19.9342C29.2646 19.5112 29.6076 19.1682 30.0306 19.1682C30.4537 19.1682 30.7966 19.5112 30.7966 19.9342ZM33.7065 14.2463C34.0384 14.2463 34.3074 13.9773 34.3074 13.6454C34.3074 13.3136 34.0384 13.0446 33.7065 13.0446C33.3747 13.0446 33.1057 13.3136 33.1057 13.6454C33.1057 13.9773 33.3747 14.2463 33.7065 14.2463ZM21.1214 27.6245C21.1214 27.9987 20.818 28.3021 20.4438 28.3021C20.0696 28.3021 19.7662 27.9987 19.7662 27.6245C19.7662 27.2503 20.0696 26.947 20.4438 26.947C20.818 26.947 21.1214 27.2503 21.1214 27.6245ZM20.8536 27.6245C20.8536 27.8508 20.6702 28.0343 20.4438 28.0343C20.2175 28.0343 20.0341 27.8508 20.0341 27.6245C20.0341 27.3982 20.2175 27.2148 20.4438 27.2148C20.6702 27.2148 20.8536 27.3982 20.8536 27.6245ZM16.247 21.7276C16.5374 21.7276 16.7727 21.4923 16.7727 21.2019C16.7727 20.9116 16.5374 20.6762 16.247 20.6762C15.9567 20.6762 15.7213 20.9116 15.7213 21.2019C15.7213 21.4923 15.9567 21.7276 16.247 21.7276ZM14.2515 17.3199C14.2515 17.8635 13.8108 18.3042 13.2672 18.3042C12.7236 18.3042 12.283 17.8635 12.283 17.3199C12.283 16.7763 12.7236 16.3356 13.2672 16.3356C13.8108 16.3356 14.2515 16.7763 14.2515 17.3199ZM26.3732 16.6402C26.9168 16.6402 27.3575 16.1995 27.3575 15.6559C27.3575 15.1123 26.9168 14.6716 26.3732 14.6716C25.8296 14.6716 25.3889 15.1123 25.3889 15.6559C25.3889 16.1995 25.8296 16.6402 26.3732 16.6402ZM30.097 16.1808C30.097 16.5126 30.3659 16.7815 30.6976 16.7815C31.0294 16.7815 31.2983 16.5126 31.2983 16.1808C31.2983 15.8491 31.0294 15.5802 30.6976 15.5802C30.3659 15.5802 30.097 15.8491 30.097 16.1808ZM21.9337 11.4778C22.2655 11.4778 22.5344 11.2089 22.5344 10.8771C22.5344 10.5454 22.2655 10.2764 21.9337 10.2764C21.602 10.2764 21.333 10.5454 21.333 10.8771C21.333 11.2089 21.602 11.4778 21.9337 11.4778ZM12.2585 6.60198C12.2585 6.93373 12.5274 7.20266 12.8592 7.20266C13.1909 7.20266 13.4598 6.93373 13.4598 6.60198C13.4598 6.27023 13.1909 6.00129 12.8592 6.00129C12.5274 6.00129 12.2585 6.27023 12.2585 6.60198ZM14.5364 17.3199C14.5364 18.0209 13.9682 18.5891 13.2672 18.5891C12.5663 18.5891 11.9981 18.0209 11.9981 17.3199C11.9981 16.619 12.5663 16.0508 13.2672 16.0508C13.9682 16.0508 14.5364 16.619 14.5364 17.3199ZM26.3732 16.8735C27.0455 16.8735 27.5906 16.3284 27.5906 15.656C27.5906 14.9837 27.0455 14.4386 26.3732 14.4386C25.7008 14.4386 25.1557 14.9837 25.1557 15.656C25.1557 16.3284 25.7008 16.8735 26.3732 16.8735ZM2.94458 16.7815C3.27633 16.7815 3.54527 16.5126 3.54527 16.1808C3.54527 15.8491 3.27633 15.5802 2.94458 15.5802C2.61283 15.5802 2.3439 15.8491 2.3439 16.1808C2.3439 16.5126 2.61283 16.7815 2.94458 16.7815ZM3.54527 24.9196C3.54527 25.2513 3.27633 25.5203 2.94458 25.5203C2.61283 25.5203 2.3439 25.2513 2.3439 24.9196C2.3439 24.5878 2.61283 24.3189 2.94458 24.3189C3.27633 24.3189 3.54527 24.5878 3.54527 24.9196ZM7.66177 21.5108C7.99352 21.5108 8.26246 21.2419 8.26246 20.9101C8.26246 20.5784 7.99352 20.3094 7.66177 20.3094C7.33002 20.3094 7.06109 20.5784 7.06109 20.9101C7.06109 21.2419 7.33002 21.5108 7.66177 21.5108ZM8.70168 28.8923C8.70168 29.1271 8.51134 29.3174 8.27654 29.3174C8.04173 29.3174 7.85139 29.1271 7.85139 28.8923C7.85139 28.6575 8.04173 28.4671 8.27654 28.4671C8.51134 28.4671 8.70168 28.6575 8.70168 28.8923ZM21.4174 6.38461C21.7025 6.38461 21.9337 6.15343 21.9337 5.86825C21.9337 5.58308 21.7025 5.3519 21.4174 5.3519C21.1322 5.3519 20.901 5.58308 20.901 5.86825C20.901 6.15343 21.1322 6.38461 21.4174 6.38461Z" fill="white"/>
<path fill-rule="evenodd" clip-rule="evenodd" d="M32.5566 47C32.9279 46.5927 33.2145 46.3242 33.3795 46.2493C33.6818 46.1118 33.8808 45.9154 34.0934 45.7055L34.0934 45.7054C34.6724 45.1337 35.3525 44.4623 38.496 44.6119C42.7939 44.8166 44.4312 43.5886 44.1242 42.463C44.0176 42.0719 43.8368 41.6437 43.6548 41.2128L43.6548 41.2128C43.3131 40.4035 42.9674 39.5847 43.1009 38.9838C43.1905 38.5806 43.6919 38.354 44.2016 38.1235C44.8563 37.8275 45.5248 37.5253 45.3522 36.8349C45.1066 35.8525 44.7507 35.6344 44.6034 35.6481C45.176 35.4286 46.304 34.8236 46.2353 34.1594C46.2069 33.8849 46.0378 33.576 45.8509 33.2348C45.4724 32.5438 45.0212 31.7202 45.5196 30.781C45.8644 30.1311 46.7809 30.0711 47.6453 30.0145C48.6466 29.949 49.578 29.8881 49.4705 28.9201C49.337 27.7189 48.2638 26.2764 47.1559 24.7872C46.6002 24.0403 46.0358 23.2816 45.5768 22.5357C44.3289 20.5078 44.4031 20.4395 44.7703 20.101C44.8074 20.0668 44.8476 20.0298 44.8897 19.9876C44.9679 19.9094 45.0704 19.8286 45.1831 19.7398C45.7303 19.3087 46.5187 18.6873 45.949 17.2392C45.899 17.112 45.834 16.9358 45.7536 16.7173L45.7535 16.717C44.7288 13.935 41.1816 4.30447 33.6864 1.8377C28.1027 1.69499e-05 22.4224 -0.139184 19.3719 0.0766047C22.1852 0.245293 25.5356 0.720814 28.8519 1.77504C36.3471 4.15767 39.8943 13.4598 40.919 16.1469C40.9995 16.3581 41.0644 16.5284 41.1145 16.6512C41.6842 18.05 40.8957 18.6501 40.3486 19.0666C40.2359 19.1524 40.1334 19.2304 40.0552 19.306C40.0131 19.3466 39.9729 19.3824 39.9357 19.4155L39.9357 19.4155C39.5685 19.7424 39.4944 19.8084 40.7423 21.7671C41.2013 22.4876 41.7657 23.2204 42.3214 23.9418C43.4293 25.3802 44.5025 26.7735 44.6359 27.9338C44.7435 28.8687 43.8121 28.9276 42.8108 28.9909H42.8108C41.9464 29.0455 41.0299 29.1034 40.685 29.7312C40.1867 30.6383 40.6379 31.4339 41.0163 32.1013C41.2032 32.4309 41.3724 32.7293 41.4008 32.9944C41.4695 33.6359 40.3415 34.2203 39.7689 34.4323C39.9162 34.4191 40.2721 34.6297 40.5177 35.5786C40.6903 36.2455 40.0218 36.5374 39.3671 36.8233C38.8574 37.0459 38.356 37.2648 38.2664 37.6542C38.1328 38.2347 38.4786 39.0256 38.8203 39.8072C39.0022 40.2234 39.183 40.637 39.2897 41.0148C39.5967 42.102 37.9594 43.2881 33.6615 43.0905C30.5179 42.9459 29.8379 43.5944 29.2589 44.1466C29.1811 44.2208 29.1052 44.2932 29.0254 44.3617C30.317 45.0855 31.5037 45.9745 32.5566 47Z" fill="white"/>
<path d="M79.5824 35.6944H83.6786V36.6425H80.7662V38.6854H83.0501V39.6388H80.7662V41.8755H83.7258V42.8446H79.5824V35.6944Z" fill="white"/>
<path d="M85.5424 37.554H86.5534V38.3607C86.8118 37.7391 87.2466 37.4283 87.8577 37.4283C88.5282 37.4283 88.9315 37.7565 89.0677 38.413C89.3157 37.7565 89.7627 37.4283 90.4087 37.4283C90.73 37.4283 90.9971 37.4981 91.2101 37.6378C91.4267 37.7775 91.5768 37.9626 91.6606 38.193C91.7444 38.4235 91.7864 38.8583 91.7864 39.4974V42.8446H90.6916V39.5864C90.6916 39.087 90.6479 38.7483 90.5606 38.5702C90.4768 38.3921 90.3057 38.303 90.0473 38.303C89.4955 38.303 89.2196 38.7832 89.2196 39.7436V42.8446H88.1248V39.6231C88.1248 39.1656 88.1056 38.8705 88.0672 38.7378C88.0323 38.6016 87.9642 38.4951 87.8629 38.4183C87.7652 38.3415 87.6377 38.303 87.4805 38.303C87.1767 38.303 86.9602 38.4183 86.831 38.6488C86.7018 38.8758 86.6372 39.2494 86.6372 39.7697V42.8446H85.5424V37.554Z" fill="white"/>
<path d="M94.1058 37.554H95.1116V38.4235C95.3874 37.7845 95.824 37.4649 96.4211 37.4649C96.9554 37.4649 97.3867 37.6989 97.715 38.1668C98.0432 38.6313 98.2074 39.2948 98.2074 40.1574C98.2074 40.9291 98.0572 41.5857 97.7569 42.1269C97.46 42.6682 96.9973 42.9389 96.3687 42.9389C95.8659 42.9389 95.473 42.7241 95.1901 42.2946V44.636H94.1058V37.554ZM95.1901 40.634C95.1901 40.9728 95.2146 41.2382 95.2635 41.4303C95.3159 41.6188 95.4206 41.7812 95.5778 41.9174C95.7349 42.0501 95.913 42.1165 96.1121 42.1165C96.7337 42.1165 97.0445 41.4634 97.0445 40.1574C97.0445 38.8932 96.7407 38.2611 96.133 38.2611C95.8641 38.2611 95.6389 38.3903 95.4573 38.6488C95.2792 38.9072 95.1901 39.2756 95.1901 39.754V40.634Z" fill="white"/>
<path d="M104.209 40.1469C104.209 42.0326 103.511 42.9755 102.114 42.9755C101.471 42.9755 100.965 42.7485 100.595 42.2946C100.228 41.8371 100.045 41.1387 100.045 40.1993C100.045 38.3519 100.743 37.4283 102.14 37.4283C102.776 37.4283 103.279 37.6535 103.649 38.104C104.022 38.5545 104.209 39.2354 104.209 40.1469ZM103.052 40.1993C103.052 39.4555 102.968 38.9456 102.8 38.6697C102.636 38.3903 102.413 38.2507 102.13 38.2507C101.515 38.2507 101.208 38.9002 101.208 40.1993C101.208 40.8628 101.279 41.3534 101.423 41.6712C101.566 41.989 101.801 42.1479 102.13 42.1479C102.454 42.1479 102.688 41.9873 102.832 41.666C102.978 41.3412 103.052 40.8523 103.052 40.1993Z" fill="white"/>
<path d="M105.659 37.554H106.733L107.519 41.1893L108.278 37.554H109.237L109.991 41.2103L110.829 37.554H111.715L110.405 42.8446H109.478L108.676 39.1778L107.912 42.8446H106.985L105.659 37.554Z" fill="white"/>
<path d="M117.266 40.3617H114.275C114.275 41.0776 114.371 41.556 114.563 41.7969C114.759 42.0344 115.003 42.1531 115.297 42.1531C115.785 42.1531 116.094 41.8231 116.224 41.1631L117.219 41.2941C116.957 42.415 116.304 42.9755 115.26 42.9755C114.621 42.9755 114.111 42.7468 113.73 42.2893C113.35 41.8319 113.159 41.1614 113.159 40.2778C113.159 39.3699 113.351 38.668 113.736 38.1721C114.12 37.6762 114.633 37.4283 115.276 37.4283C115.726 37.4283 116.105 37.5522 116.412 37.8002C116.72 38.0481 116.936 38.3746 117.062 38.7797C117.187 39.1813 117.256 39.7086 117.266 40.3617ZM116.15 39.6231C116.15 38.6907 115.847 38.2245 115.239 38.2245C114.67 38.2245 114.357 38.6907 114.301 39.6231H116.15Z" fill="white"/>
<path d="M119.25 37.554H120.214V38.7378C120.507 37.8753 120.947 37.444 121.534 37.444C121.59 37.444 121.656 37.4492 121.733 37.4597V38.5964C121.642 38.5859 121.569 38.5807 121.513 38.5807C120.734 38.5807 120.345 39.1045 120.345 40.1521V42.8446H119.25V37.554Z" fill="white"/>
<path d="M124.362 36.8416H123.22V35.6839H124.362V36.8416ZM123.246 37.554H124.336V42.8446H123.246V37.554Z" fill="white"/>
<path d="M126.697 37.554H127.708V38.3711C127.952 37.7426 128.389 37.4283 129.017 37.4283C129.374 37.4283 129.66 37.5138 129.877 37.6849C130.097 37.8561 130.234 38.0621 130.29 38.303C130.35 38.5405 130.379 38.9177 130.379 39.4345V42.8446H129.29V39.4921C129.29 39.0312 129.25 38.7186 129.169 38.5545C129.089 38.3869 128.918 38.303 128.656 38.303C128.384 38.303 128.171 38.4096 128.017 38.6226C127.867 38.8321 127.792 39.2512 127.792 39.8797V42.8446H126.697V37.554Z" fill="white"/>
<path d="M136.816 36.7106V37.5121C136.715 37.4911 136.631 37.4806 136.565 37.4806C136.243 37.4806 136.053 37.6745 135.994 38.0621C136.259 38.3973 136.392 38.7762 136.392 39.1988C136.392 39.6772 136.226 40.0805 135.894 40.4088C135.562 40.7371 135.115 40.9012 134.553 40.9012C134.34 40.9012 134.117 40.8698 133.883 40.8069C133.617 40.9082 133.485 41.0618 133.485 41.2679C133.485 41.446 133.554 41.5612 133.694 41.6136C133.837 41.666 134.213 41.7079 134.82 41.7393C135.344 41.7673 135.739 41.8161 136.004 41.886C136.27 41.9558 136.481 42.099 136.638 42.3155C136.799 42.5285 136.879 42.8097 136.879 43.1589C136.879 43.6967 136.671 44.1035 136.256 44.3794C135.84 44.6587 135.248 44.7984 134.48 44.7984C133.74 44.7984 133.198 44.6762 132.856 44.4318C132.517 44.1908 132.348 43.8695 132.348 43.4679C132.348 42.9581 132.605 42.6176 133.118 42.4465C132.734 42.2335 132.542 41.9453 132.542 41.5822C132.542 41.1212 132.802 40.7668 133.322 40.5188C132.868 40.2185 132.641 39.7663 132.641 39.1621C132.641 38.6453 132.814 38.228 133.16 37.9102C133.506 37.5889 133.951 37.4283 134.496 37.4283C134.852 37.4283 135.185 37.5051 135.496 37.6587C135.552 37.2921 135.657 37.0389 135.81 36.8992C135.968 36.756 136.195 36.6844 136.491 36.6844C136.579 36.6844 136.687 36.6932 136.816 36.7106ZM135.266 39.1831C135.266 38.4916 135.026 38.1459 134.548 38.1459C134.028 38.1459 133.767 38.4951 133.767 39.1935C133.767 39.871 134.019 40.2098 134.522 40.2098C135.018 40.2098 135.266 39.8675 135.266 39.1831ZM133.794 42.6246C133.49 42.7747 133.338 43 133.338 43.3003C133.338 43.5517 133.436 43.7368 133.631 43.8556C133.827 43.9743 134.152 44.0336 134.606 44.0336C135.444 44.0336 135.863 43.7909 135.863 43.3055C135.863 43.0681 135.782 42.9057 135.622 42.8184C135.465 42.7276 135.152 42.6752 134.684 42.6612C134.29 42.6473 133.993 42.635 133.794 42.6246Z" fill="white"/>
<path d="M140.952 37.554H142.026L142.812 41.1893L143.571 37.554H144.53L145.284 41.2103L146.122 37.554H147.008L145.698 42.8446H144.771L143.969 39.1778L143.205 42.8446H142.277L140.952 37.554Z" fill="white"/>
<path d="M149.83 36.8416H148.688V35.6839H149.83V36.8416ZM148.714 37.554H149.804V42.8446H148.714V37.554Z" fill="white"/>
<path d="M152.359 36.1763L153.344 36.082V37.554H154.355V38.434H153.344V40.7702C153.344 41.1823 153.354 41.4565 153.375 41.5926C153.396 41.7253 153.459 41.8353 153.564 41.9226C153.669 42.0065 153.843 42.0484 154.088 42.0484C154.217 42.0484 154.363 42.0361 154.528 42.0117V42.8812C154.234 42.9441 153.962 42.9755 153.71 42.9755C153.302 42.9755 152.989 42.897 152.773 42.7398C152.556 42.5792 152.418 42.3627 152.359 42.0903C152.3 41.8179 152.27 41.4023 152.27 40.8436V38.434H151.584V37.554H152.301L152.359 36.1763Z" fill="white"/>
<path d="M156.156 35.6944H157.25V38.2559C157.498 37.7041 157.919 37.4283 158.513 37.4283C158.817 37.4283 159.072 37.4981 159.278 37.6378C159.487 37.7775 159.632 37.9643 159.712 38.1983C159.796 38.4288 159.838 38.867 159.838 39.5131V42.8446H158.749V39.5131C158.749 38.9613 158.686 38.6226 158.56 38.4969C158.434 38.3676 158.279 38.303 158.094 38.303C157.532 38.303 157.25 38.8077 157.25 39.8169V42.8446H156.156V35.6944Z" fill="white"/>
<path d="M164.43 35.6944H168.793V36.7001H167.196V42.8446H166.012V36.7001H164.43V35.6944Z" fill="white"/>
<path d="M173.784 40.3617H170.793C170.793 41.0776 170.889 41.556 171.081 41.7969C171.277 42.0344 171.521 42.1531 171.815 42.1531C172.304 42.1531 172.613 41.8231 172.742 41.1631L173.737 41.2941C173.475 42.415 172.822 42.9755 171.778 42.9755C171.139 42.9755 170.629 42.7468 170.249 42.2893C169.868 41.8319 169.678 41.1614 169.678 40.2778C169.678 39.3699 169.87 38.668 170.254 38.1721C170.638 37.6762 171.151 37.4283 171.794 37.4283C172.244 37.4283 172.623 37.5522 172.93 37.8002C173.238 38.0481 173.454 38.3746 173.58 38.7797C173.706 39.1813 173.774 39.7086 173.784 40.3617ZM172.669 39.6231C172.669 38.6907 172.365 38.2245 171.757 38.2245C171.188 38.2245 170.875 38.6907 170.819 39.6231H172.669Z" fill="white"/>
<path d="M179.435 39.335L178.382 39.4502C178.33 38.9893 178.241 38.6819 178.115 38.5283C177.99 38.3711 177.811 38.2926 177.581 38.2926C177.256 38.2926 177.02 38.4427 176.874 38.7431C176.727 39.0399 176.654 39.5637 176.654 40.3145C176.654 41.4879 176.963 42.0746 177.581 42.0746C178.056 42.0746 178.323 41.6922 178.382 40.9274L179.435 41.0217C179.292 42.3242 178.648 42.9755 177.502 42.9755C176.825 42.9755 176.322 42.7311 175.994 42.2422C175.669 41.7533 175.507 41.0776 175.507 40.215C175.507 39.307 175.683 38.6156 176.036 38.1407C176.388 37.6657 176.902 37.4283 177.576 37.4283C178.662 37.4283 179.282 38.0638 179.435 39.335Z" fill="white"/>
<path d="M181.32 35.6944H182.415V38.2559C182.663 37.7041 183.084 37.4283 183.677 37.4283C183.981 37.4283 184.236 37.4981 184.442 37.6378C184.652 37.7775 184.796 37.9643 184.877 38.1983C184.961 38.4288 185.002 38.867 185.002 39.5131V42.8446H183.913V39.5131C183.913 38.9613 183.85 38.6226 183.724 38.4969C183.599 38.3676 183.443 38.303 183.258 38.303C182.696 38.303 182.415 38.8077 182.415 39.8169V42.8446H181.32V35.6944Z" fill="white"/>
<path d="M187.332 37.554H188.343V38.3711C188.588 37.7426 189.024 37.4283 189.653 37.4283C190.009 37.4283 190.296 37.5138 190.512 37.6849C190.732 37.8561 190.87 38.0621 190.926 38.303C190.985 38.5405 191.015 38.9177 191.015 39.4345V42.8446H189.925V39.4921C189.925 39.0312 189.885 38.7186 189.805 38.5545C189.725 38.3869 189.553 38.303 189.292 38.303C189.019 38.303 188.806 38.4096 188.652 38.6226C188.502 38.8321 188.427 39.2512 188.427 39.8797V42.8446H187.332V37.554Z" fill="white"/>
<path d="M197.242 40.1469C197.242 42.0326 196.544 42.9755 195.147 42.9755C194.504 42.9755 193.998 42.7485 193.628 42.2946C193.261 41.8371 193.078 41.1387 193.078 40.1993C193.078 38.3519 193.776 37.4283 195.173 37.4283C195.809 37.4283 196.311 37.6535 196.682 38.104C197.055 38.5545 197.242 39.2354 197.242 40.1469ZM196.084 40.1993C196.084 39.4555 196.001 38.9456 195.833 38.6697C195.669 38.3903 195.445 38.2507 195.163 38.2507C194.548 38.2507 194.241 38.9002 194.241 40.1993C194.241 40.8628 194.312 41.3534 194.455 41.6712C194.599 41.989 194.834 42.1479 195.163 42.1479C195.487 42.1479 195.721 41.9873 195.864 41.666C196.011 41.3412 196.084 40.8523 196.084 40.1993Z" fill="white"/>
<path d="M199.347 35.6944H200.442V42.8446H199.347V35.6944Z" fill="white"/>
<path d="M206.7 40.1469C206.7 42.0326 206.002 42.9755 204.605 42.9755C203.962 42.9755 203.456 42.7485 203.086 42.2946C202.719 41.8371 202.536 41.1387 202.536 40.1993C202.536 38.3519 203.234 37.4283 204.631 37.4283C205.267 37.4283 205.77 37.6535 206.14 38.104C206.513 38.5545 206.7 39.2354 206.7 40.1469ZM205.543 40.1993C205.543 39.4555 205.459 38.9456 205.291 38.6697C205.127 38.3903 204.903 38.2507 204.621 38.2507C204.006 38.2507 203.699 38.9002 203.699 40.1993C203.699 40.8628 203.77 41.3534 203.913 41.6712C204.057 41.989 204.292 42.1479 204.621 42.1479C204.945 42.1479 205.179 41.9873 205.323 41.666C205.469 41.3412 205.543 40.8523 205.543 40.1993Z" fill="white"/>
<path d="M212.917 36.7106V37.5121C212.816 37.4911 212.732 37.4806 212.665 37.4806C212.344 37.4806 212.154 37.6745 212.095 38.0621C212.36 38.3973 212.493 38.7762 212.493 39.1988C212.493 39.6772 212.327 40.0805 211.995 40.4088C211.663 40.7371 211.216 40.9012 210.654 40.9012C210.441 40.9012 210.217 40.8698 209.984 40.8069C209.718 40.9082 209.585 41.0618 209.585 41.2679C209.585 41.446 209.655 41.5612 209.795 41.6136C209.938 41.666 210.314 41.7079 210.921 41.7393C211.445 41.7673 211.84 41.8161 212.105 41.886C212.37 41.9558 212.582 42.099 212.739 42.3155C212.899 42.5285 212.98 42.8097 212.98 43.1589C212.98 43.6967 212.772 44.1035 212.356 44.3794C211.941 44.6587 211.349 44.7984 210.581 44.7984C209.84 44.7984 209.299 44.6762 208.957 44.4318C208.618 44.1908 208.449 43.8695 208.449 43.4679C208.449 42.9581 208.705 42.6176 209.219 42.4465C208.835 42.2335 208.643 41.9453 208.643 41.5822C208.643 41.1212 208.903 40.7668 209.423 40.5188C208.969 40.2185 208.742 39.7663 208.742 39.1621C208.742 38.6453 208.915 38.228 209.261 37.9102C209.606 37.5889 210.052 37.4283 210.596 37.4283C210.953 37.4283 211.286 37.5051 211.597 37.6587C211.653 37.2921 211.758 37.0389 211.911 36.8992C212.068 36.756 212.295 36.6844 212.592 36.6844C212.679 36.6844 212.788 36.6932 212.917 36.7106ZM211.366 39.1831C211.366 38.4916 211.127 38.1459 210.649 38.1459C210.128 38.1459 209.868 38.4951 209.868 39.1935C209.868 39.871 210.12 40.2098 210.623 40.2098C211.118 40.2098 211.366 39.8675 211.366 39.1831ZM209.894 42.6246C209.591 42.7747 209.439 43 209.439 43.3003C209.439 43.5517 209.537 43.7368 209.732 43.8556C209.928 43.9743 210.252 44.0336 210.706 44.0336C211.544 44.0336 211.964 43.7909 211.964 43.3055C211.964 43.0681 211.883 42.9057 211.723 42.8184C211.565 42.7276 211.253 42.6752 210.785 42.6612C210.39 42.6473 210.094 42.635 209.894 42.6246Z" fill="white"/>
<path d="M213.984 37.554H215.079L216.001 41.1893L216.949 37.554H217.934L216.216 43.1798C216.09 43.5884 215.975 43.8905 215.87 44.086C215.765 44.2816 215.617 44.4387 215.425 44.5575C215.233 44.6797 214.985 44.7408 214.681 44.7408C214.5 44.7408 214.313 44.7164 214.121 44.6675V43.7979C214.26 43.8224 214.388 43.8346 214.503 43.8346C214.786 43.8346 214.987 43.7648 215.105 43.6251C215.224 43.4889 215.352 43.1693 215.488 42.6665L213.984 37.554Z" fill="white"/>
<path d="M67.9235 9.27051H73.0819L71.5733 16.3511H80.9898L82.4984 9.27051H87.6082L83.8854 26.7653H78.8L80.3329 19.4413H70.9164L69.3591 26.7653H64.2007L67.9235 9.27051Z" fill="white"/>
<path d="M104.454 19.49L102.167 12.7987L97.1302 19.49H104.454ZM86.3511 26.7653L100.342 9.27051H105.792L112.532 26.7653H106.814L105.452 22.5802H94.7943L91.8015 26.7653H86.3511Z" fill="white"/>
<path d="M131.352 19.49L129.065 12.7987L124.029 19.49H131.352ZM113.249 26.7653L127.24 9.27051H132.691L139.431 26.7653H133.713L132.35 22.5802H121.693L118.7 26.7653H113.249Z" fill="white"/>
<path d="M165.064 9.27051L164.382 12.4093H151.681C148.988 12.4093 147.488 13.1718 147.18 14.6966C147.131 14.9399 147.131 15.1751 147.18 15.4022C147.245 15.6293 147.382 15.8321 147.593 16.0105C147.804 16.1889 148.104 16.3349 148.494 16.4485C148.899 16.5458 149.418 16.5945 150.051 16.5945H156.84C158.348 16.5945 159.589 16.6999 160.562 16.9108C161.536 17.1217 162.282 17.438 162.801 17.8597C163.336 18.2653 163.661 18.7762 163.774 19.3927C163.888 20.0091 163.847 20.7228 163.653 21.5339C163.458 22.3612 163.15 23.0992 162.728 23.7481C162.306 24.3807 161.714 24.9241 160.952 25.3783C160.189 25.8325 159.232 26.1813 158.08 26.4246C156.945 26.6517 155.566 26.7653 153.944 26.7653H140.245L140.926 23.6264H153.798C154.625 23.6264 155.307 23.5778 155.842 23.4804C156.393 23.3669 156.831 23.2128 157.156 23.0181C157.48 22.8235 157.716 22.5883 157.862 22.3125C158.024 22.0205 158.145 21.6961 158.226 21.3392C158.275 21.1446 158.283 20.9499 158.251 20.7552C158.235 20.5444 158.121 20.3578 157.91 20.1956C157.716 20.0334 157.383 19.9036 156.913 19.8063C156.458 19.6927 155.818 19.636 154.99 19.636H148.932C146.093 19.636 144.098 19.2142 142.946 18.3707C141.81 17.5272 141.437 16.2538 141.827 14.5506C142.021 13.7233 142.33 12.9852 142.751 12.3363C143.189 11.6875 143.789 11.136 144.552 10.6818C145.314 10.2276 146.263 9.87881 147.399 9.63549C148.55 9.39217 149.929 9.27051 151.535 9.27051H165.064Z" fill="white"/>
<path d="M182.013 19.49L179.725 12.7987L174.689 19.49H182.013ZM163.91 26.7653L177.9 9.27051H183.351L190.091 26.7653H184.373L183.01 22.5802H172.353L169.36 26.7653H163.91Z" fill="white"/>
<path d="M190.686 26.7653L191.319 23.7238H195.382L194.75 26.7653H190.686Z" fill="white"/>
<path d="M215.255 19.49L212.968 12.7987L207.931 19.49H215.255ZM197.152 26.7653L211.143 9.27051H216.594L223.334 26.7653H217.616L216.253 22.5802H205.596L202.603 26.7653H197.152Z" fill="white"/>
<path d="M233.978 9.27051L230.28 26.7653H224.878L228.601 9.27051H233.978Z" fill="white"/>
</svg>
